{
   "accessors" : [
      {
         "bufferView" : 0,
         "byteOffset" : 0,
         "componentType" : 5123,
         "count" : 300792,
         "max" : [ 65533 ],
         "min" : [ 0 ],
         "name" : "buffer-0-group-0-mesh-0-indices",
         "type" : "SCALAR"
      },
      {
         "bufferView" : 2,
         "byteOffset" : 0,
         "componentType" : 5126,
         "count" : 65534,
         "max" : [ 3.563425064086914, 2.191344976425171, 1.61269998550415 ],
         "min" : [ -3.39460301399231, -0.00304200011305511, -1.61269998550415 ],
         "name" : "buffer-0-group-0-mesh-0-position",
         "type" : "VEC3"
      },
      {
         "bufferView" : 2,
         "byteOffset" : 786408,
         "componentType" : 5126,
         "count" : 65534,
         "max" : [ 1, 1, 1 ],
         "min" : [ -1, -1, -1 ],
         "name" : "buffer-0-group-0-mesh-0-normal",
         "type" : "VEC3"
      },
      {
         "bufferView" : 1,
         "byteOffset" : 0,
         "componentType" : 5126,
         "count" : 65534,
         "max" : [ 0.9987800121307373, 0 ],
         "min" : [ -0.0001449999981559813, -0.9996479749679565 ],
         "name" : "buffer-0-group-0-mesh-0-texcoord",
         "type" : "VEC2"
      },
      {
         "bufferView" : 0,
         "byteOffset" : 601584,
         "componentType" : 5123,
         "count" : 88008,
         "max" : [ 25851 ],
         "min" : [ 0 ],
         "name" : "buffer-0-group-0-mesh-1-indices",
         "type" : "SCALAR"
      },
      {
         "bufferView" : 2,
         "byteOffset" : 1572816,
         "componentType" : 5126,
         "count" : 25852,
         "max" : [ 3.563425064086914, 2.191344976425171, 1.823166012763977 ],
         "min" : [ -3.39460301399231, -0.01129900012165308, -1.823166012763977 ],
         "name" : "buffer-0-group-0-mesh-1-position",
         "type" : "VEC3"
      },
      {
         "bufferView" : 2,
         "byteOffset" : 1883040,
         "componentType" : 5126,
         "count" : 25852,
         "max" : [ 1, 1, 1 ],
         "min" : [ -1, -1, -1 ],
         "name" : "buffer-0-group-0-mesh-1-normal",
         "type" : "VEC3"
      },
      {
         "bufferView" : 1,
         "byteOffset" : 524272,
         "componentType" : 5126,
         "count" : 25852,
         "max" : [ 0.9987800121307373, 0 ],
         "min" : [ -0.0001449999981559813, -0.9996479749679565 ],
         "name" : "buffer-0-group-0-mesh-1-texcoord",
         "type" : "VEC2"
      },
      {
         "bufferView" : 0,
         "byteOffset" : 777600,
         "componentType" : 5123,
         "count" : 3072,
         "max" : [ 573 ],
         "min" : [ 0 ],
         "name" : "buffer-0-group-1-mesh-0-indices",
         "type" : "SCALAR"
      },
      {
         "bufferView" : 2,
         "byteOffset" : 2193264,
         "componentType" : 5126,
         "count" : 574,
         "max" : [ 0.4084230065345764, 1.923987030982971, 0.7436969876289368 ],
         "min" : [ -2.607635021209717, 0, -0.7585110068321228 ],
         "name" : "buffer-0-group-1-mesh-0-position",
         "type" : "VEC3"
      },
      {
         "bufferView" : 2,
         "byteOffset" : 2200152,
         "componentType" : 5126,
         "count" : 574,
         "max" : [ 0.4510000050067902, 0.9998000264167786, 0.9380000233650208 ],
         "min" : [ -0.4691999852657318, -0.9998000264167786, -0.9380000233650208 ],
         "name" : "buffer-0-group-1-mesh-0-normal",
         "type" : "VEC3"
      },
      {
         "bufferView" : 1,
         "byteOffset" : 731088,
         "componentType" : 5126,
         "count" : 574,
         "max" : [ 0, 0 ],
         "min" : [ 0, 0 ],
         "name" : "buffer-0-group-1-mesh-0-texcoord",
         "type" : "VEC2"
      }
   ],
   "asset" : {
      "extras" : {
         "GOOGLE_processor_version" : 293297437
      },
      "generator" : "Obj2GltfConverter",
      "version" : "2.0"
   },
   "bufferViews" : [
      {
         "buffer" : 0,
         "byteLength" : 783744,
         "byteOffset" : 0,
         "byteStride" : 0,
         "name" : "buffer-0-bufferview-ushort",
         "target" : 34963
      },
      {
         "buffer" : 0,
         "byteLength" : 735680,
         "byteOffset" : 783744,
         "byteStride" : 8,
         "name" : "buffer-0-bufferview-vec2",
         "target" : 34962
      },
      {
         "buffer" : 0,
         "byteLength" : 2207040,
         "byteOffset" : 1519428,
         "byteStride" : 12,
         "name" : "buffer-0-bufferview-vec3",
         "target" : 34962
      },
      {
         "buffer" : 0,
         "byteLength" : 1,
         "byteOffset" : 0,
         "name" : "buffer-0-bufferview-vec4"
      }
   ],
   "buffers" : [
      {
         "byteLength" : 3726468,
         "name" : "buffer-0",
         "uri" : "Future Car.bin"
      }
   ],
   "cameras" : [
      {
         "perspective" : {
            "yfov" : 0.7853981633974483,
            "znear" : 0.1000000014901161
         },
         "type" : "perspective"
      }
   ],
   "extensions" : {
      "KHR_lights_punctual" : {
         "lights" : [
            {
               "color" : [ 1, 0.9333333333333333, 0.8666666666666667 ],
               "intensity" : 0.25,
               "name" : "headLight",
               "type" : "directional"
            },
            {
               "color" : [ 1, 0.9333333333333333, 0.8666666666666667 ],
               "intensity" : 0.324999988079071,
               "name" : "keyLight",
               "type" : "directional"
            }
         ]
      }
   },
   "extensionsUsed" : [ "GOOGLE_backgrounds", "GOOGLE_camera_settings", "KHR_lights_punctual" ],
   "extras" : {
      "GOOGLE_initial_camera_motion" : {
         "motionPath" : "FULL_ROTATION"
      },
      "GOOGLE_lighting_rig" : {
         "disableShadows" : false
      }
   },
   "images" : [
      {
         "mimeType" : "image/jpeg",
         "name" : "Future_Car-diffuse-image",
         "uri" : "Future Car Test/Future Car_C.jpg"
      },
      {
         "mimeType" : "image/jpeg",
         "name" : "glass-diffuse-image",
         "uri" : "Future Car Test/Future Car_C.jpg"
      }
   ],
   "materials" : [
      {
         "alphaMode" : "OPAQUE",
         "doubleSided" : true,
         "name" : "Future_Car",
         "pbrMetallicRoughness" : {
            "baseColorFactor" : [ 0.64, 0.64, 0.64, 1 ],
            "baseColorTexture" : {
               "index" : 0,
               "texCoord" : 0
            },
            "metallicFactor" : 0,
            "roughnessFactor" : 0.7448017359246658
         }
      },
      {
         "alphaMode" : "BLEND",
         "doubleSided" : true,
         "name" : "glass",
         "pbrMetallicRoughness" : {
            "baseColorFactor" : [ 1, 1, 1, 0.134796 ],
            "baseColorTexture" : {
               "index" : 1,
               "texCoord" : 0
            },
            "metallicFactor" : 0,
            "roughnessFactor" : 0.06805892474990537
         }
      }
   ],
   "meshes" : [
      {
         "name" : "buffer-0-mesh-0",
         "primitives" : [
            {
               "attributes" : {
                  "NORMAL" : 2,
                  "POSITION" : 1,
                  "TEXCOORD_0" : 3
               },
               "indices" : 0,
               "material" : 0,
               "mode" : 4
            },
            {
               "attributes" : {
                  "NORMAL" : 6,
                  "POSITION" : 5,
                  "TEXCOORD_0" : 7
               },
               "indices" : 4,
               "material" : 0,
               "mode" : 4
            },
            {
               "attributes" : {
                  "NORMAL" : 10,
                  "POSITION" : 9,
                  "TEXCOORD_0" : 11
               },
               "indices" : 8,
               "material" : 1,
               "mode" : 4
            }
         ]
      }
   ],
   "nodes" : [
      {
         "mesh" : 0,
         "name" : "node-0"
      },
      {
         "children" : [ 2 ]
      },
      {
         "children" : [ 3 ],
         "extras" : {
            "isTransformNode" : 1
         },
         "rotation" : [ 0, 0, 0, -1 ],
         "translation" : [ 0.3111326146566672, 1.055403478089365, 0.01890237135965306 ]
      },
      {
         "children" : [ 0 ],
         "translation" : [ -0.3111326146566672, -1.055403478089365, -0.01890237135965306 ]
      },
      {
         "camera" : 0,
         "children" : [ 5 ],
         "rotation" : [
            -0.1805487481745119,
            -0.3382403676909185,
            -0.06629307940103174,
            0.921195327181189
         ],
         "translation" : [ -4.101494712806343, 2.584770161545801, 3.935371934697265 ]
      },
      {
         "extensions" : {
            "KHR_lights_punctual" : {
               "light" : 0
            }
         },
         "extras" : {
            "isHeadLight" : 1
         },
         "name" : "headLightNode",
         "translation" : [ -4.319326712131473, 2.159663356065737, 2.159663356065737 ]
      },
      {
         "extensions" : {
            "KHR_lights_punctual" : {
               "light" : 1
            }
         },
         "extras" : {
            "isKeyLight" : 1
         },
         "name" : "keyLightNode",
         "rotation" : [ -0.7505326882858236, -0.3752663441429118, 0, 0.5439447166468927 ],
         "scale" : [ 0, 0, 4.362519979252788 ],
         "translation" : [ -4.426673327102487, 9.723761162555805, -4.41002599888277 ]
      }
   ],
   "samplers" : [
      {
         "name" : "Future_Car-diffuse-sampler",
         "wrapS" : 10497,
         "wrapT" : 10497
      },
      {
         "name" : "glass-diffuse-sampler",
         "wrapS" : 10497,
         "wrapT" : 10497
      }
   ],
   "scene" : 0,
   "scenes" : [
      {
         "extensions" : {
            "GOOGLE_backgrounds" : {
               "color" : [ 0.3764705882352941, 0.4901960784313725, 0.5450980392156862 ]
            },
            "GOOGLE_camera_settings" : {
               "pivot" : [ 0, 0, 0 ]
            }
         },
         "extras" : {
            "GOOGLE_camera_index" : {
               "cameraIndex" : 0,
               "nodeIndex" : 4
            },
            "GOOGLE_geometry_data" : {
               "stats" : {
                  "centroid" : [ -0.0641533478496997, 0.9987212040502281, -0.0475060196299821 ],
                  "radius" : 4.319326712131473,
                  "stdev" : 2.141346560921081
               },
               "visualCenterPoint" : [ 0.3111326146566672, 1.055403478089365, 0.01890237135965306 ]
            },
            "GOOGLE_hemi_light" : {
               "groundColor" : [ 0.3764705882352941, 0.4901960784313725, 0.5450980392156862 ]
            }
         },
         "name" : "scene-0",
         "nodes" : [ 1, 4, 6 ]
      }
   ],
   "textures" : [
      {
         "name" : "Future_Car-diffuse-texture",
         "sampler" : 0,
         "source" : 0
      },
      {
         "name" : "glass-diffuse-texture",
         "sampler" : 1,
         "source" : 1
      }
   ]
}
